<svg width="259" height="45" viewBox="0 0 259 45" fill="none" xmlns="http://www.w3.org/2000/svg">
<g clip-path="url(#clip0_1_31)">
<path d="M16.37 33.25C16.7137 35.001 17.6409 36.5838 19 37.74C20.3361 38.8895 21.9054 39.7356 23.6 40.22C23.8183 40.2458 24.0285 40.3181 24.2165 40.4319C24.4045 40.5458 24.566 40.6985 24.69 40.88C24.9436 41.2179 25.0836 41.6275 25.09 42.05C25.0929 42.2982 25.0446 42.5444 24.9483 42.7732C24.852 43.002 24.7096 43.2085 24.53 43.38C24.2055 43.7198 23.7598 43.9175 23.29 43.93C22.8226 43.9229 22.3584 43.8523 21.91 43.72C21.4001 43.5749 20.902 43.391 20.42 43.17C19.9333 42.9425 19.4593 42.6888 19 42.41C18.5828 42.1577 18.1789 41.884 17.79 41.59C16.6346 40.731 15.6221 39.6949 14.79 38.52C13.9397 37.3452 13.3064 36.0278 12.92 34.63C12.8397 34.2319 12.625 33.8735 12.3118 33.615C11.9987 33.3564 11.6061 33.2134 11.2 33.21C10.2793 33.1301 9.37229 32.9352 8.50003 32.63C7.56528 32.301 6.65894 31.8964 5.79003 31.42C5.48237 31.2531 5.13988 31.1606 4.79003 31.15C4.07003 31.15 3.71003 31.57 3.71003 32.43V41.59C3.71431 41.8366 3.66868 42.0816 3.57588 42.3101C3.48308 42.5387 3.34503 42.7461 3.17003 42.92C3.00042 43.0957 2.7968 43.2351 2.57159 43.3297C2.34638 43.4242 2.10428 43.472 1.86003 43.47C1.61578 43.472 1.37368 43.4242 1.14847 43.3297C0.923257 43.2351 0.719645 43.0957 0.550031 42.92C0.373222 42.747 0.233325 42.5399 0.138793 42.3113C0.0442606 42.0827 -0.00294421 41.8373 3.09508e-05 41.59V8.83996C-0.0042459 8.59332 0.0413856 8.34836 0.134183 8.11981C0.226981 7.89125 0.365029 7.68381 0.540031 7.50996C0.713005 7.34142 0.918128 7.20941 1.14319 7.12179C1.36824 7.03417 1.60863 6.99274 1.85003 6.99996H12.54C14.3037 6.97868 16.053 7.31901 17.68 7.99996C19.1709 8.6271 20.5132 9.56062 21.62 10.74C22.7372 11.9478 23.6039 13.3651 24.17 14.91C24.7834 16.5916 25.0882 18.3701 25.07 20.16C25.0772 21.5501 24.9024 22.9352 24.55 24.28C24.2228 25.5373 23.6998 26.7353 23 27.83C22.2891 28.9145 21.4039 29.8741 20.38 30.67C19.297 31.498 18.0838 32.1401 16.79 32.57C16.7153 32.5823 16.6441 32.6105 16.5812 32.6526C16.5182 32.6948 16.4651 32.75 16.4253 32.8144C16.3855 32.8788 16.36 32.9511 16.3504 33.0262C16.3409 33.1013 16.3476 33.1776 16.37 33.25ZM4.60003 10.72C4.48648 10.7247 4.37499 10.7518 4.272 10.7999C4.16902 10.848 4.07658 10.916 4.00003 11C3.91487 11.0834 3.84715 11.183 3.8008 11.2929C3.75445 11.4027 3.73039 11.5207 3.73003 11.64V20.12C3.69904 21.5582 3.95045 22.9885 4.47003 24.33C4.91505 25.4612 5.59698 26.4841 6.47003 27.33C7.26581 28.075 8.20965 28.644 9.24003 29C11.3687 29.7329 13.6814 29.7329 15.81 29C16.8672 28.6378 17.8353 28.0549 18.65 27.29C19.5203 26.4417 20.2018 25.4195 20.65 24.29C21.1745 22.9499 21.426 21.5186 21.39 20.08C21.4258 18.6381 21.1742 17.2036 20.65 15.86C20.199 14.7523 19.5172 13.7535 18.65 12.93C17.8313 12.1751 16.864 11.5995 15.81 11.24C14.7586 10.8746 13.6532 10.6887 12.54 10.69L4.60003 10.72Z" fill="url(#paint0_linear_1_31)"/>
<path d="M48.3801 8.33999C48.3733 8.09064 48.4187 7.84263 48.5135 7.61187C48.6082 7.38111 48.7501 7.1727 48.93 6.99999C49.0963 6.82258 49.2979 6.68198 49.5218 6.58724C49.7457 6.49251 49.987 6.44576 50.23 6.44999C50.4746 6.44559 50.7175 6.49223 50.943 6.58693C51.1686 6.68163 51.3719 6.82231 51.5401 6.99999C51.7155 7.17349 51.8539 7.38087 51.9467 7.60951C52.0395 7.83815 52.0849 8.08327 52.0801 8.32999V41.59C52.0843 41.8366 52.0387 42.0816 51.9459 42.3102C51.8531 42.5387 51.7151 42.7461 51.5401 42.92C51.3704 43.0958 51.1668 43.2352 50.9416 43.3297C50.7164 43.4243 50.4743 43.472 50.23 43.47C49.9873 43.4718 49.7468 43.424 49.5232 43.3294C49.2996 43.2348 49.0978 43.0955 48.93 42.92C48.7518 42.7481 48.611 42.5412 48.5163 42.3124C48.4217 42.0835 48.3753 41.8376 48.3801 41.59V8.33999Z" fill="url(#paint1_linear_1_31)"/>
<path d="M92.17 23.08C92.4142 23.078 92.6563 23.1257 92.8815 23.2203C93.1067 23.3148 93.3104 23.4542 93.48 23.63C93.8258 23.9864 94.0191 24.4634 94.0191 24.96C94.0191 25.4566 93.8258 25.9336 93.48 26.29C93.3118 26.4677 93.1085 26.6084 92.8829 26.7031C92.6574 26.7978 92.4146 26.8444 92.17 26.84H81.89C81.6812 26.8413 81.4747 26.8837 81.2823 26.9649C81.0899 27.046 80.9153 27.1642 80.7686 27.3128C80.6219 27.4613 80.5059 27.6374 80.4272 27.8308C80.3485 28.0242 80.3087 28.2312 80.31 28.44V41.54C80.3148 41.7867 80.2695 42.0319 80.1766 42.2605C80.0838 42.4891 79.9454 42.6965 79.77 42.87C79.5988 43.0436 79.3948 43.1814 79.17 43.2754C78.9451 43.3695 78.7037 43.4179 78.46 43.4179C78.2162 43.4179 77.9749 43.3695 77.75 43.2754C77.5251 43.1814 77.3211 43.0436 77.15 42.87C76.9745 42.6965 76.8361 42.4891 76.7433 42.2605C76.6505 42.0319 76.6051 41.7867 76.61 41.54V8.84001C76.6057 8.59337 76.6513 8.34841 76.7441 8.11986C76.8369 7.8913 76.975 7.68386 77.15 7.51001C77.3229 7.34147 77.5281 7.20946 77.7531 7.12184C77.9782 7.03422 78.2186 6.99279 78.46 7.00001H95C95.2444 6.99683 95.4868 7.04402 95.7122 7.13864C95.9376 7.23327 96.1411 7.3733 96.31 7.55001C96.6557 7.9064 96.8491 8.38345 96.8491 8.88001C96.8491 9.37658 96.6557 9.85362 96.31 10.21C96.1411 10.3867 95.9376 10.5268 95.7122 10.6214C95.4868 10.716 95.2444 10.7632 95 10.76H81.89C81.682 10.7598 81.4761 10.8023 81.2852 10.8849C81.0943 10.9674 80.9223 11.0883 80.78 11.24C80.6307 11.3858 80.5122 11.56 80.4315 11.7524C80.3508 11.9448 80.3094 12.1514 80.31 12.36V21.52C80.3094 21.7286 80.3508 21.9353 80.4315 22.1276C80.5122 22.32 80.6307 22.4942 80.78 22.64C80.9223 22.7917 81.0943 22.9126 81.2852 22.9952C81.4761 23.0777 81.682 23.1202 81.89 23.12L92.17 23.08Z" fill="url(#paint2_linear_1_31)"/>
<path d="M139.15 8.34C139.146 8.09097 139.192 7.84368 139.287 7.61326C139.381 7.38285 139.522 7.17417 139.7 7C139.87 6.82552 140.073 6.68682 140.297 6.59211C140.521 6.49741 140.762 6.44861 141.005 6.44861C141.248 6.44861 141.489 6.49741 141.713 6.59211C141.938 6.68682 142.14 6.82552 142.31 7C142.486 7.1735 142.624 7.38087 142.717 7.60951C142.81 7.83815 142.855 8.08328 142.85 8.33V31.19C142.894 33.1855 142.519 35.1681 141.75 37.01C141.086 38.5595 140.108 39.9552 138.88 41.11C137.724 42.1811 136.363 43.0077 134.88 43.54C131.937 44.6065 128.713 44.6065 125.77 43.54C124.228 42.9935 122.817 42.1301 121.629 41.0055C120.44 39.8808 119.501 38.5198 118.87 37.01C118.113 35.1652 117.745 33.1837 117.79 31.19V8.34C117.783 8.09233 117.826 7.84573 117.917 7.61531C118.008 7.38489 118.145 7.17551 118.32 7C118.491 6.82645 118.695 6.68864 118.92 6.59458C119.145 6.50052 119.386 6.45209 119.63 6.45209C119.874 6.45209 120.115 6.50052 120.34 6.59458C120.565 6.68864 120.769 6.82645 120.94 7C121.116 7.1735 121.254 7.38087 121.347 7.60951C121.44 7.83815 121.485 8.08328 121.48 8.33V31.1C121.447 32.5547 121.698 34.0018 122.22 35.36C122.661 36.4931 123.344 37.5168 124.22 38.36C125.019 39.0992 125.967 39.6584 127 40C128.057 40.3702 129.17 40.5562 130.29 40.55C131.403 40.5512 132.509 40.3653 133.56 40C134.614 39.6405 135.581 39.0649 136.4 38.31C137.27 37.4885 137.952 36.4891 138.4 35.38C138.923 34.0361 139.175 32.6018 139.14 31.16L139.15 8.34Z" fill="url(#paint3_linear_1_31)"/>
<path d="M187.27 27.21C187.026 27.212 186.784 27.1643 186.558 27.0697C186.333 26.9752 186.13 26.8357 185.96 26.66C185.62 26.2984 185.433 25.8185 185.441 25.3219C185.448 24.8253 185.649 24.3512 186 24C186.168 23.8223 186.371 23.6816 186.597 23.5869C186.823 23.4922 187.065 23.4456 187.31 23.45H199.8C200.045 23.4456 200.287 23.4922 200.513 23.5869C200.739 23.6816 200.942 23.8223 201.11 24C201.285 24.1738 201.423 24.3813 201.516 24.6098C201.609 24.8384 201.654 25.0833 201.65 25.33C201.721 28.2197 201.183 31.092 200.07 33.76C199.135 35.9955 197.75 38.0142 196 39.69C194.329 41.245 192.354 42.4368 190.2 43.19C185.968 44.7232 181.332 44.7232 177.1 43.19C174.957 42.4315 172.993 41.2401 171.33 39.69C169.562 38.0189 168.159 35.9999 167.21 33.76C166.101 31.1085 165.563 28.2532 165.63 25.38C165.547 22.5131 166.057 19.6599 167.13 17C168.075 14.766 169.475 12.7533 171.24 11.09C172.901 9.54507 174.862 8.35727 177 7.59999C179.116 6.84869 181.345 6.46318 183.59 6.45999C183.833 6.45575 184.074 6.50251 184.298 6.59724C184.522 6.69197 184.724 6.83258 184.89 7.00999C185.065 7.18349 185.204 7.39086 185.297 7.6195C185.389 7.84814 185.435 8.09327 185.43 8.33999C185.435 8.58519 185.389 8.82876 185.296 9.05575C185.203 9.28274 185.065 9.48836 184.89 9.65999C184.724 9.8374 184.522 9.978 184.298 10.0727C184.074 10.1675 183.833 10.2142 183.59 10.21C181.79 10.21 180.004 10.5212 178.31 11.13C176.605 11.733 175.04 12.6753 173.71 13.9C172.303 15.2236 171.194 16.8329 170.46 18.62C169.607 20.7692 169.195 23.0683 169.25 25.38C169.193 27.7077 169.615 30.0222 170.49 32.18C171.226 33.9609 172.33 35.5661 173.73 36.89C175.051 38.1193 176.61 39.0654 178.31 39.67C180.004 40.2756 181.791 40.5834 183.59 40.58C185.164 40.5815 186.729 40.3421 188.23 39.87C189.754 39.4009 191.182 38.6663 192.45 37.7C193.772 36.6784 194.897 35.4247 195.77 34C196.731 32.3782 197.379 30.5906 197.68 28.73C197.786 28.4051 197.786 28.0549 197.68 27.73C197.573 27.5538 197.406 27.4223 197.21 27.36C197.042 27.305 196.867 27.2747 196.69 27.27L187.27 27.21ZM188.44 4.43999C187.742 4.01352 186.984 3.69651 186.19 3.49999C185.39 3.31055 184.572 3.21325 183.75 3.20999C182.086 3.19223 180.447 3.61669 179 4.43999C178.837 4.53693 178.65 4.58549 178.46 4.57999C178.305 4.60242 178.146 4.58797 177.997 4.53778C177.849 4.4876 177.714 4.4031 177.604 4.29113C177.494 4.17916 177.412 4.04285 177.364 3.89325C177.317 3.74364 177.305 3.58494 177.33 3.42999C177.331 3.25911 177.368 3.09031 177.436 2.93387C177.505 2.77743 177.605 2.63662 177.73 2.51999C178.532 1.80616 179.427 1.20403 180.39 0.729987C181.437 0.226574 182.588 -0.0234907 183.75 -1.29828e-05C184.879 -0.0211958 185.995 0.236418 187 0.749987C187.936 1.26268 188.826 1.85486 189.66 2.51999C189.806 2.62126 189.924 2.75785 190.002 2.91699C190.081 3.07613 190.118 3.25263 190.11 3.42999C190.134 3.58306 190.123 3.73971 190.076 3.88758C190.03 4.03544 189.95 4.17047 189.842 4.282C189.734 4.39353 189.602 4.47851 189.456 4.53022C189.31 4.58194 189.154 4.59897 189 4.57999C188.805 4.57554 188.614 4.52771 188.44 4.43999Z" fill="url(#paint4_linear_1_31)"/>
<path d="M240.25 44.38C238.014 44.3775 235.796 43.9919 233.69 43.24C231.545 42.4817 229.58 41.2865 227.92 39.73C226.157 38.0642 224.752 36.0567 223.79 33.83C222.685 31.1844 222.147 28.3365 222.21 25.47C222.147 22.5957 222.678 19.7394 223.77 17.08C224.715 14.8427 226.111 12.8241 227.87 11.15C229.541 9.59498 231.516 8.40323 233.67 7.65C235.782 6.89566 238.007 6.50676 240.25 6.5C242.486 6.50511 244.705 6.89409 246.81 7.65C248.954 8.40616 250.919 9.59781 252.58 11.15C254.346 12.8209 255.745 14.8402 256.69 17.08C257.779 19.7401 258.307 22.5964 258.24 25.47C258.307 28.3358 257.772 31.1837 256.67 33.83C255.711 36.0531 254.313 38.0598 252.56 39.73C250.905 41.2929 248.939 42.4889 246.79 43.24C244.691 43.9895 242.479 44.375 240.25 44.38ZM225.91 25.47C225.86 27.7809 226.282 30.0777 227.15 32.22C227.892 34.0031 228.999 35.611 230.4 36.94C231.726 38.1706 233.292 39.1137 235 39.71C238.393 40.9366 242.108 40.9366 245.5 39.71C247.201 39.1112 248.76 38.1682 250.08 36.94C251.481 35.611 252.588 34.0031 253.33 32.22C254.198 30.0777 254.62 27.7809 254.57 25.47C254.62 23.1512 254.206 20.8458 253.35 18.69C252.618 16.9103 251.509 15.3102 250.1 14C248.784 12.772 247.228 11.829 245.53 11.23C242.12 10.0031 238.39 10.0031 234.98 11.23C233.274 11.8307 231.709 12.7733 230.38 14C228.959 15.3202 227.849 16.9391 227.13 18.74C226.281 20.8802 225.866 23.168 225.91 25.47Z" fill="url(#paint5_linear_1_31)"/>
</g>
<defs>
<linearGradient id="paint0_linear_1_31" x1="12.545" y1="6.99902" x2="12.545" y2="43.93" gradientUnits="userSpaceOnUse">
<stop/>
<stop offset="0.546875" stop-color="#64564A" stop-opacity="0.95625"/>
<stop offset="1" stop-opacity="0.92"/>
</linearGradient>
<linearGradient id="paint1_linear_1_31" x1="50.2299" y1="6.44971" x2="50.2299" y2="43.4701" gradientUnits="userSpaceOnUse">
<stop/>
<stop offset="0.546875" stop-color="#64564A" stop-opacity="0.95625"/>
<stop offset="1" stop-opacity="0.92"/>
</linearGradient>
<linearGradient id="paint2_linear_1_31" x1="86.7294" y1="6.99921" x2="86.7294" y2="43.4179" gradientUnits="userSpaceOnUse">
<stop/>
<stop offset="0.546875" stop-color="#64564A" stop-opacity="0.95625"/>
<stop offset="1" stop-opacity="0.92"/>
</linearGradient>
<linearGradient id="paint3_linear_1_31" x1="130.32" y1="6.44861" x2="130.32" y2="44.3398" gradientUnits="userSpaceOnUse">
<stop/>
<stop offset="0.546875" stop-color="#64564A" stop-opacity="0.95625"/>
<stop offset="1" stop-opacity="0.92"/>
</linearGradient>
<linearGradient id="paint4_linear_1_31" x1="183.639" y1="-0.00152588" x2="183.639" y2="44.3399" gradientUnits="userSpaceOnUse">
<stop/>
<stop offset="0.546875" stop-color="#64564A" stop-opacity="0.95625"/>
<stop offset="1" stop-opacity="0.92"/>
</linearGradient>
<linearGradient id="paint5_linear_1_31" x1="240.225" y1="6.5" x2="240.225" y2="44.38" gradientUnits="userSpaceOnUse">
<stop/>
<stop offset="0.546875" stop-color="#64564A" stop-opacity="0.95625"/>
<stop offset="1" stop-opacity="0.92"/>
</linearGradient>
<clipPath id="clip0_1_31">
<rect width="258.24" height="44.38" fill="white"/>
</clipPath>
</defs>
</svg>
