<svg width="185" height="354" viewBox="0 0 185 354" fill="none" xmlns="http://www.w3.org/2000/svg">
<g clip-path="url(#clip0_1_51)">
<path d="M46.2075 317.485C45.6864 317.495 45.1691 317.395 44.6886 317.193C44.2081 316.991 43.7749 316.691 43.4167 316.313C42.6801 315.553 42.2681 314.536 42.2681 313.478C42.2681 312.419 42.6801 311.402 43.4167 310.643C43.778 310.268 44.2118 309.971 44.6916 309.769C45.1714 309.568 45.6871 309.466 46.2075 309.47H72.9221C73.4392 309.466 73.9517 309.568 74.4279 309.77C74.9042 309.972 75.3342 310.269 75.6916 310.643C76.0644 311.013 76.3585 311.455 76.5562 311.943C76.7539 312.43 76.8511 312.952 76.842 313.478C76.989 319.635 75.8498 325.756 73.4973 331.447C71.4597 336.219 68.4651 340.521 64.6989 344.088C61.1451 347.404 56.9461 349.951 52.3642 351.57C43.3433 354.809 33.4774 354.809 24.4565 351.57C19.8835 349.945 15.6925 347.399 12.1431 344.088C8.38319 340.52 5.39577 336.218 3.36603 331.447C-1.09271 319.971 -1.09271 307.24 3.36603 295.764C5.36382 290.999 8.33953 286.707 12.1005 283.166C15.6551 279.856 19.8543 277.316 24.4352 275.705C28.8989 274.101 33.6037 273.272 38.3465 273.254C38.8643 273.245 39.3783 273.344 39.8553 273.546C40.3323 273.748 40.7618 274.048 41.1159 274.426C41.4882 274.798 41.7836 275.24 41.9851 275.727C42.1866 276.213 42.2903 276.735 42.2903 277.261C42.2903 277.788 42.1866 278.309 41.9851 278.796C41.7836 279.282 41.4882 279.724 41.1159 280.096C40.7679 280.49 40.3421 280.807 39.8654 281.027C39.3886 281.247 38.8714 281.366 38.3465 281.375C34.5133 281.368 30.7077 282.024 27.0982 283.315C23.4704 284.609 20.1384 286.617 17.2985 289.22C14.2998 292.036 11.9452 295.469 10.3962 299.281C6.90216 308.599 6.90216 318.868 10.3962 328.186C11.9688 331.986 14.3202 335.413 17.2985 338.247C20.1141 340.861 23.4346 342.87 27.0556 344.152C33.8627 346.603 41.284 346.76 48.1887 344.599C54.8952 342.548 60.5985 338.073 64.1877 332.044C66.2449 328.59 67.6325 324.779 68.2779 320.81C68.5071 320.118 68.5071 319.371 68.2779 318.679C68.0451 318.308 67.6914 318.03 67.2767 317.89C66.9186 317.773 66.5455 317.708 66.1689 317.698L46.2075 317.485ZM48.7 268.969C47.2184 268.051 45.6004 267.375 43.9067 266.965C42.2061 266.543 40.4607 266.328 38.7086 266.326C35.1744 266.293 31.6955 267.206 28.632 268.969C28.2824 269.168 27.8836 269.265 27.4816 269.246C27.1527 269.293 26.8173 269.263 26.5024 269.157C26.1874 269.051 25.9015 268.873 25.6676 268.637C25.4337 268.401 25.2582 268.113 25.1552 267.797C25.0522 267.481 25.0245 267.145 25.0743 266.816C25.0771 266.449 25.154 266.086 25.3004 265.749C25.4468 265.412 25.6598 265.108 25.9265 264.855C27.6244 263.346 29.5158 262.07 31.5506 261.061C33.7802 259.981 36.2321 259.441 38.7086 259.483C41.1446 259.418 43.5571 259.975 45.7175 261.103C47.7181 262.176 49.6152 263.432 51.3842 264.855C51.6977 265.075 51.9514 265.369 52.1225 265.711C52.2936 266.054 52.3767 266.434 52.3642 266.816C52.414 267.145 52.3864 267.481 52.2834 267.797C52.1803 268.113 52.0049 268.401 51.771 268.637C51.537 268.873 51.2512 269.051 50.9362 269.157C50.6212 269.263 50.2858 269.293 49.9569 269.246C49.5221 269.253 49.0917 269.158 48.7 268.969Z" fill="url(#paint0_linear_1_51)"/>
<path d="M146.654 353.851C141.889 353.849 137.16 353.019 132.679 351.399C128.113 349.783 123.929 347.243 120.386 343.939C116.625 340.389 113.637 336.1 111.609 331.341C109.243 325.705 108.095 319.632 108.243 313.52C108.112 307.403 109.236 301.323 111.545 295.657C113.553 290.88 116.535 286.574 120.301 283.017C123.852 279.696 128.052 277.149 132.636 275.535C141.693 272.294 151.593 272.294 160.65 275.535C165.214 277.164 169.397 279.711 172.942 283.017C176.702 286.576 179.677 290.881 181.677 295.657C184.006 301.318 185.138 307.4 185 313.52C185.137 319.631 183.99 325.702 181.634 331.341C179.606 336.094 176.626 340.382 172.878 343.939C169.349 347.261 165.161 349.803 160.586 351.399C156.118 353.014 151.404 353.843 146.654 353.851ZM116.126 313.584C116.008 318.518 116.907 323.423 118.767 327.994C120.333 331.797 122.694 335.22 125.691 338.034C128.505 340.655 131.826 342.671 135.448 343.96C142.688 346.546 150.598 346.546 157.838 343.96C161.454 342.671 164.767 340.654 167.574 338.034C170.563 335.213 172.923 331.792 174.497 327.994C176.357 323.423 177.257 318.518 177.139 313.584C177.246 308.641 176.363 303.727 174.54 299.132C172.996 295.315 170.658 291.871 167.68 289.028C164.865 286.414 161.544 284.405 157.923 283.123C150.659 280.508 142.712 280.508 135.448 283.123C131.678 284.438 128.233 286.548 125.348 289.31C122.463 292.071 120.204 295.421 118.725 299.132C116.902 303.727 116.018 308.641 116.126 313.584Z" fill="url(#paint1_linear_1_51)"/>
<path d="M41.4567 171.17C41.9745 171.161 42.4886 171.261 42.9656 171.463C43.4426 171.664 43.872 171.964 44.2262 172.342C44.9628 173.102 45.3748 174.119 45.3748 175.177C45.3748 176.236 44.9628 177.253 44.2262 178.013C43.8688 178.387 43.4388 178.684 42.9625 178.885C42.4863 179.087 41.9738 179.189 41.4567 179.185H19.5353C19.1009 179.183 18.6702 179.266 18.2681 179.431C17.866 179.595 17.5003 179.838 17.1919 180.144C16.8619 180.459 16.6021 180.84 16.4296 181.263C16.257 181.685 16.1756 182.139 16.1907 182.596V210.52C16.1998 211.046 16.1026 211.568 15.9049 212.055C15.7072 212.542 15.4131 212.984 15.0403 213.355C14.6756 213.725 14.2411 214.019 13.762 214.219C13.283 214.42 12.7688 214.523 12.2495 214.523C11.7302 214.523 11.2161 214.42 10.737 214.219C10.2579 214.019 9.82343 213.725 9.45876 213.355C9.08594 212.984 8.79185 212.542 8.59416 212.055C8.39647 211.568 8.29926 211.046 8.30837 210.52V140.816C8.29802 140.29 8.39467 139.767 8.59243 139.28C8.79019 138.792 9.08494 138.35 9.45876 137.98C9.81696 137.602 10.2501 137.302 10.7307 137.1C11.2112 136.898 11.7285 136.799 12.2495 136.808H47.4004C47.9214 136.799 48.4387 136.898 48.9192 137.1C49.3998 137.302 49.8329 137.602 50.1911 137.98C50.565 138.35 50.8597 138.792 51.0575 139.28C51.2552 139.767 51.3519 140.29 51.3415 140.816C51.3515 141.338 51.2546 141.857 51.0567 142.341C50.8589 142.825 50.5644 143.263 50.1911 143.629C49.8329 144.008 49.3998 144.308 48.9192 144.51C48.4387 144.712 47.9214 144.811 47.4004 144.802H19.5353C19.0954 144.802 18.6602 144.892 18.2569 145.069C17.8537 145.245 17.4911 145.502 17.1919 145.825C16.8714 146.138 16.6175 146.513 16.4454 146.927C16.2733 147.341 16.1867 147.785 16.1907 148.234V167.759C16.1871 168.204 16.274 168.646 16.4461 169.056C16.6183 169.466 16.872 169.838 17.1919 170.147C17.4911 170.47 17.8537 170.727 18.2569 170.903C18.6602 171.079 19.0954 171.17 19.5353 171.17H41.4567Z" fill="url(#paint2_linear_1_51)"/>
<path d="M163.505 137.639C163.496 137.114 163.593 136.592 163.79 136.104C163.988 135.617 164.282 135.175 164.655 134.804C165.02 134.434 165.454 134.141 165.933 133.94C166.412 133.74 166.927 133.636 167.446 133.636C167.965 133.636 168.479 133.74 168.958 133.94C169.437 134.141 169.872 134.434 170.237 134.804C170.609 135.175 170.904 135.617 171.101 136.104C171.299 136.592 171.396 137.114 171.387 137.639V186.369C171.48 190.622 170.682 194.848 169.044 198.775C167.614 202.064 165.535 205.029 162.93 207.493C160.478 209.791 157.576 211.555 154.408 212.673C148.138 214.946 141.27 214.946 135.001 212.673C131.84 211.538 128.942 209.776 126.479 207.493C123.86 205.046 121.784 202.076 120.386 198.775C118.773 194.842 117.989 190.618 118.086 186.369V137.639C118.076 137.114 118.174 136.592 118.371 136.104C118.569 135.617 118.863 135.175 119.236 134.804C119.597 134.43 120.031 134.133 120.511 133.931C120.991 133.729 121.506 133.628 122.027 133.632C122.544 133.628 123.056 133.73 123.533 133.932C124.009 134.133 124.439 134.43 124.796 134.804C125.176 135.171 125.476 135.612 125.678 136.1C125.879 136.587 125.978 137.112 125.968 137.639V186.177C125.888 189.278 126.424 192.365 127.544 195.257C128.497 197.666 129.949 199.846 131.805 201.652C133.528 203.283 135.575 204.533 137.813 205.319C142.34 206.881 147.26 206.881 151.788 205.319C153.98 204.5 155.977 203.229 157.646 201.588C159.504 199.842 160.959 197.71 161.907 195.343C163.014 192.483 163.549 189.434 163.483 186.369L163.505 137.639Z" fill="url(#paint3_linear_1_51)"/>
<path d="M46.1861 57.1064C46.9069 60.8332 48.8666 64.2063 51.7463 66.6774C54.5851 69.1385 57.9309 70.9435 61.5459 71.9639C62.0109 72.019 62.4587 72.173 62.8592 72.4157C63.2598 72.6584 63.6037 72.984 63.868 73.3707C64.4082 74.0911 64.7065 74.9642 64.7202 75.8647C64.7263 76.3939 64.6235 76.9187 64.4183 77.4064C64.213 77.8941 63.9097 78.3344 63.5272 78.6998C62.8358 79.4242 61.8862 79.8456 60.8855 79.8722C59.8898 79.8572 58.9008 79.7066 57.9456 79.4246C56.8592 79.1153 55.7981 78.7234 54.7714 78.2522C53.7275 77.7619 52.6411 77.229 51.7463 76.6535C50.8569 76.1089 49.9965 75.5183 49.1686 74.8842C46.712 73.0476 44.5558 70.8399 42.7775 68.3401C40.9661 65.8359 39.6169 63.0276 38.7937 60.048C38.6191 59.2013 38.1606 58.4396 37.4942 57.8891C36.8278 57.3387 35.9936 57.0324 35.1295 57.0211C33.1706 56.8476 31.2395 56.4397 29.3776 55.8061C27.3886 55.1245 25.4579 54.2834 23.6043 53.2908C22.9489 52.935 22.2193 52.7379 21.474 52.7152C19.9614 52.63 19.1732 53.5466 19.1732 55.4224V74.9482C19.1823 75.4739 19.0851 75.9961 18.8874 76.4833C18.6897 76.9705 18.3956 77.4126 18.0228 77.7832C17.6581 78.1532 17.2236 78.4469 16.7445 78.6474C16.2655 78.8479 15.7513 78.9512 15.232 78.9512C14.7127 78.9512 14.1986 78.8479 13.7195 78.6474C13.2404 78.4469 12.8059 78.1532 12.4413 77.7832C12.0684 77.4126 11.7744 76.9705 11.5767 76.4833C11.379 75.9961 11.2818 75.4739 11.2909 74.9482V5.07328C11.2818 4.54754 11.379 4.02537 11.5767 3.53818C11.7744 3.05098 12.0684 2.6088 12.4413 2.23821C12.8051 1.86093 13.2423 1.56225 13.7259 1.36061C14.2096 1.15896 14.7294 1.05864 15.2533 1.06582H38.0268C41.784 1.02045 45.5107 1.74591 48.9768 3.19745C52.1538 4.54221 55.0134 6.53926 57.3704 9.05943C59.7592 11.6275 61.6067 14.6506 62.8028 17.9483C64.1097 21.5255 64.7592 25.3096 64.7202 29.1181C64.7355 32.0813 64.363 35.0339 63.6124 37.9004C62.9127 40.6201 61.7836 43.2107 60.2677 45.5743C58.7532 47.8861 56.8673 49.9316 54.6862 51.6281C52.3841 53.4011 49.7981 54.7705 47.0382 55.6782C46.8853 55.7101 46.7405 55.7733 46.6133 55.8641C46.486 55.9548 46.3789 56.0709 46.2988 56.2051C46.2187 56.3394 46.1674 56.4888 46.148 56.6439C46.1285 56.7991 46.1415 56.9565 46.1861 57.1064ZM21.1118 9.08075C20.8606 9.0795 20.6118 9.12994 20.381 9.22895C20.1501 9.32796 19.942 9.47342 19.7697 9.65629C19.5828 9.83567 19.4337 10.0507 19.3313 10.2887C19.2288 10.5266 19.1751 10.7827 19.1732 11.0418V29.0968C19.1072 32.1625 19.6428 35.2115 20.7496 38.0709C21.6977 40.4823 23.1504 42.6627 25.0104 44.4658C26.7217 46.101 28.7628 47.3511 30.9967 48.1322C35.536 49.6673 40.4537 49.6673 44.9931 48.1322C47.2842 47.3379 49.3769 46.0582 51.1285 44.3806C52.9824 42.5725 54.4342 40.3934 55.3892 37.9857C56.5064 35.1291 57.0424 32.0781 56.9657 29.0115C57.0424 25.9449 56.5064 22.8939 55.3892 20.0373C54.4233 17.6976 52.9709 15.5904 51.1285 13.8556C49.3795 12.253 47.3203 11.0268 45.0783 10.2531C42.8383 9.47443 40.4834 9.0781 38.112 9.08075H21.1118Z" fill="url(#paint4_linear_1_51)"/>
<path d="M144.545 4.00747C144.535 3.48172 144.633 2.95956 144.83 2.47236C145.028 1.98516 145.322 1.54298 145.695 1.1724C146.059 0.805675 146.492 0.514646 146.97 0.316053C147.447 0.11746 147.958 0.0152225 148.475 0.0152225C148.992 0.0152225 149.504 0.11746 149.981 0.316053C150.458 0.514646 150.891 0.805675 151.255 1.1724C151.628 1.54298 151.922 1.98516 152.12 2.47236C152.318 2.95956 152.415 3.48172 152.406 4.00747V74.8842C152.415 75.41 152.318 75.9321 152.12 76.4193C151.922 76.9065 151.628 77.3487 151.255 77.7193C150.891 78.0892 150.456 78.383 149.977 78.5835C149.498 78.784 148.984 78.8872 148.464 78.8872C147.945 78.8872 147.431 78.784 146.952 78.5835C146.473 78.383 146.038 78.0892 145.674 77.7193C145.301 77.3487 145.007 76.9065 144.809 76.4193C144.611 75.9321 144.514 75.41 144.523 74.8842L144.545 4.00747Z" fill="url(#paint5_linear_1_51)"/>
</g>
<defs>
<linearGradient id="paint0_linear_1_51" x1="38.4383" y1="259.478" x2="38.4383" y2="354" gradientUnits="userSpaceOnUse">
<stop/>
<stop offset="0.5" stop-color="#53514E"/>
<stop offset="1"/>
</linearGradient>
<linearGradient id="paint1_linear_1_51" x1="146.621" y1="273.104" x2="146.621" y2="353.851" gradientUnits="userSpaceOnUse">
<stop/>
<stop offset="0.5" stop-color="#53514E"/>
<stop offset="1"/>
</linearGradient>
<linearGradient id="paint2_linear_1_51" x1="29.8249" y1="136.807" x2="29.8249" y2="214.523" gradientUnits="userSpaceOnUse">
<stop/>
<stop offset="0.5" stop-color="#53514E"/>
<stop offset="1"/>
</linearGradient>
<linearGradient id="paint3_linear_1_51" x1="144.736" y1="133.632" x2="144.736" y2="214.378" gradientUnits="userSpaceOnUse">
<stop/>
<stop offset="0.5" stop-color="#53514E"/>
<stop offset="1"/>
</linearGradient>
<linearGradient id="paint4_linear_1_51" x1="38.0061" y1="1.06381" x2="38.0061" y2="79.8722" gradientUnits="userSpaceOnUse">
<stop/>
<stop offset="0.5" stop-color="#53514E"/>
<stop offset="1"/>
</linearGradient>
<linearGradient id="paint5_linear_1_51" x1="148.464" y1="0.0152225" x2="148.464" y2="78.8872" gradientUnits="userSpaceOnUse">
<stop/>
<stop offset="0.5" stop-color="#53514E"/>
<stop offset="1"/>
</linearGradient>
<clipPath id="clip0_1_51">
<rect width="185" height="354" fill="white"/>
</clipPath>
</defs>
</svg>
